<svg xmlns="http://www.w3.org/2000/svg" width="153.837" height="24" viewBox="0 0 153.837 24">
    <g data-name="그룹 4309">
        <g data-name="그룹 4308">
            <path data-name="패스 968" d="M747.771 546.764h4.1l.011-7.729a5.418 5.418 0 0 0-5.636-5.382h-5.994v3.093a.553.553 0 0 0 .553.553h5.471a1.483 1.483 0 0 1 1.483 1.483v.143H742.2a3.3 3.3 0 0 0-3.29 3.3v1.548a3.049 3.049 0 0 0 3.281 3h2.485a5.17 5.17 0 0 0 3.091-1.156zm-4.735-4.5a.781.781 0 0 1 .78-.78h3.8a.151.151 0 0 1 .151.151v1.79a.151.151 0 0 1-.151.15h-3.8a.778.778 0 0 1-.778-.778z" transform="translate(-702.198 -522.899)" style="fill:#0064b2"/>
            <path data-name="패스 969" d="M1153.626 546.764h4.1l.011-7.729a5.418 5.418 0 0 0-5.636-5.382h-5.994v3.093a.552.552 0 0 0 .553.553h5.476a1.478 1.478 0 0 1 1.478 1.477v.149h-5.559a3.3 3.3 0 0 0-3.29 3.3v1.548a3.049 3.049 0 0 0 3.281 3h2.485a5.171 5.171 0 0 0 3.091-1.156zm-4.735-4.5a.781.781 0 0 1 .781-.78h3.8a.151.151 0 0 1 .151.151v1.79a.151.151 0 0 1-.151.15h-3.8a.778.778 0 0 1-.778-.778z" transform="translate(-1034.252 -522.899)" style="fill:#0064b2"/>
            <path data-name="패스 970" d="M670.836 510.508h5.435v-3.456a.444.444 0 0 0-.444-.444h-14.215a.444.444 0 0 0-.444.444v3.456h5.432v14.141h4.234z" transform="translate(-638.589 -500.772)" style="fill:#0064b2"/>
            <path data-name="패스 971" d="M824.365 506.678h-3.679a.444.444 0 0 0-.444.444v17.584h4.123z" transform="translate(-768.738 -500.828)" style="fill:#0064b2"/>
            <path data-name="패스 972" d="M1011.593 523.661h3.519v-3.616h-3.519v-3.032h-3.679a.444.444 0 0 0-.444.444v2.588h-1.962v3.616h1.962v9.5h4.122z" transform="translate(-920.314 -509.284)" style="fill:#0064b2"/>
            <path data-name="패스 973" d="m1319.635 517.876 3.728-6.286h-4.652l-2.381 4.014a.859.859 0 0 1-.739.421h-.924v-9.346h-3.679a.444.444 0 0 0-.444.444v17.583h4.123v-5.115h1.05a.627.627 0 0 1 .535.3l2.925 4.814h4.543z" transform="translate(-1169.882 -500.829)" style="fill:#0064b2"/>
            <path data-name="패스 974" d="M935.586 533.589h-1.571a3.089 3.089 0 0 0-2.281 1.156V533.6h-3.679a.444.444 0 0 0-.444.444v12.678h4.123v-9.089a.226.226 0 0 1 .226-.226h3.231a1.46 1.46 0 0 1 1.46 1.46v7.854h4.123v-7.931a5.2 5.2 0 0 0-5.188-5.201z" transform="translate(-856.582 -522.846)" style="fill:#0064b2"/>
            <path data-name="패스 975" d="M1235.113 533.589h-1.571a3.089 3.089 0 0 0-2.281 1.156V533.6h-3.679a.444.444 0 0 0-.444.444v12.678h4.123v-9.089a.226.226 0 0 1 .226-.226h3.231a1.46 1.46 0 0 1 1.46 1.46v7.854h4.123v-7.931a5.2 5.2 0 0 0-5.188-5.201z" transform="translate(-1101.643 -522.846)" style="fill:#0064b2"/>
            <path data-name="패스 976" d="M1073.547 511.554h-2.5a3.09 3.09 0 0 0-2.281 1.158v-6.064h-3.679a.444.444 0 0 0-.444.444v17.59h4.123v-1.15a4.815 4.815 0 0 0 2.953 1.15h3.212a3.28 3.28 0 0 0 3.281-3.285v-5.16a4.673 4.673 0 0 0-4.665-4.683zm.543 8.5a1.12 1.12 0 0 1-1.119 1.12H1069a.226.226 0 0 1-.226-.226V515.4a.226.226 0 0 1 .226-.226h3.972a1.119 1.119 0 0 1 1.119 1.119z" transform="translate(-968.697 -500.804)" style="fill:#0064b2"/>
            <path data-name="패스 977" d="M859.067 541.963v.093a.752.752 0 0 1-.752.752h-2.992a1.492 1.492 0 0 1-1.492-1.491V541h8.981v-2.62a5.454 5.454 0 0 0-5.443-5.464h-1.839a5.509 5.509 0 0 0-5.443 5.528V541a5.313 5.313 0 0 0 5.443 5.3h1.839a5.444 5.444 0 0 0 5.318-4.332zm-3.745-5.443h2.253a1.492 1.492 0 0 1 1.491 1.492v.432h-5.236v-.432a1.492 1.492 0 0 1 1.492-1.492z" transform="translate(-793.154 -522.295)" style="fill:#0064b2"/>
        </g>
        <path data-name="패스 978" d="M579.575 510.259a3.539 3.539 0 0 0-3.539-3.539h-4.866v3.94h3.454a1.011 1.011 0 0 1 1.011 1.011v1.507a1.011 1.011 0 0 1-.92 1.007h-3.545v3.084h3.546a1.011 1.011 0 0 1 .92 1.007v1.507a1.011 1.011 0 0 1-1.011 1.011h-7.913v3.94h9.326a3.539 3.539 0 0 0 3.539-3.539v-2.965a4.04 4.04 0 0 1 0-5.005z" transform="translate(-561.308 -500.863)" style="fill:#cdce00"/>
        <path data-name="패스 979" d="M545.406 506.678h-4.867a3.539 3.539 0 0 0-3.539 3.539v14.489h3.94v-13.077a1.011 1.011 0 0 1 1.011-1.011h3.454z" transform="translate(-537 -500.828)" style="fill:#0064b2"/>
        <path data-name="패스 980" d="M580.294 474.508h-3.308a.632.632 0 0 0-.632.632v3.308h3.94z" transform="translate(-569.198 -474.508)" style="fill:#0064b2"/>
    </g>
</svg>
