<svg width="100" height="100" viewBox="0 0 100 100" fill="none" xmlns="http://www.w3.org/2000/svg">
<path d="M52.5001 38.32C51.2738 38.32 50.0751 37.9564 49.0555 37.2751C48.0359 36.5939 47.2412 35.6256 46.772 34.4927C46.3027 33.3598 46.18 32.1132 46.4192 30.9105C46.6584 29.7078 47.2489 28.6031 48.116 27.736C48.9831 26.8689 50.0878 26.2784 51.2905 26.0392C52.4932 25.7999 53.7398 25.9227 54.8727 26.392C56.0056 26.8612 56.9739 27.6559 57.6552 28.6755C58.3364 29.6951 58.7 30.8938 58.7 32.12C58.7 33.7644 58.0468 35.3414 56.8841 36.5041C55.7214 37.6668 54.1444 38.32 52.5001 38.32ZM52.5001 28.385C51.7606 28.3852 51.0378 28.6047 50.423 29.0156C49.8083 29.4266 49.3292 30.0106 49.0464 30.6939C48.7635 31.3771 48.6896 32.1289 48.834 32.8541C48.9784 33.5793 49.3346 34.2455 49.8575 34.7683C50.3805 35.2911 51.0467 35.6471 51.772 35.7913C52.4972 35.9355 53.249 35.8613 53.9321 35.5783C54.6153 35.2953 55.1992 34.8161 55.61 34.2012C56.0208 33.5864 56.2401 32.8635 56.2401 32.124C56.239 31.1325 55.8446 30.182 55.1434 29.481C54.4422 28.78 53.4916 28.3858 52.5001 28.385V28.385Z" fill="#57BAD4"/>
<path d="M66.0341 57.407C65.7081 57.407 65.3955 57.2776 65.165 57.0471C64.9345 56.8166 64.8051 56.504 64.8051 56.178V46.342C64.8043 45.458 64.4527 44.6105 63.8276 43.9854C63.2026 43.3604 62.355 43.0088 61.471 43.008H43.53C42.646 43.0088 41.7985 43.3604 41.1734 43.9854C40.5483 44.6105 40.1968 45.458 40.196 46.342V56.178C40.196 56.504 40.0665 56.8166 39.8361 57.0471C39.6056 57.2776 39.293 57.407 38.967 57.407C38.6411 57.407 38.3285 57.2776 38.098 57.0471C37.8675 56.8166 37.738 56.504 37.738 56.178V46.342C37.7404 44.8067 38.3514 43.335 39.4371 42.2495C40.5229 41.1639 41.9947 40.5532 43.53 40.551H61.472C63.0072 40.5534 64.4788 41.1643 65.5643 42.2498C66.6498 43.3353 67.2606 44.8069 67.263 46.342V56.178C67.263 56.504 67.1336 56.8166 66.9031 57.0471C66.6726 57.2776 66.36 57.407 66.0341 57.407V57.407Z" fill="#57BAD4"/>
<path d="M44.576 63.7271C44.4147 63.7271 44.2548 63.6952 44.1057 63.6335C43.9566 63.5717 43.8211 63.4812 43.707 63.3671C43.5928 63.2529 43.5023 63.1175 43.4406 62.9684C43.3788 62.8192 43.347 62.6594 43.347 62.498V49.804C43.347 49.4781 43.4765 49.1655 43.707 48.935C43.9375 48.7045 44.2501 48.575 44.576 48.575C44.902 48.575 45.2146 48.7045 45.4451 48.935C45.6756 49.1655 45.8051 49.4781 45.8051 49.804V62.498C45.8051 62.6594 45.7732 62.8192 45.7115 62.9684C45.6497 63.1175 45.5592 63.2529 45.4451 63.3671C45.3309 63.4812 45.1954 63.5717 45.0463 63.6335C44.8972 63.6952 44.7374 63.7271 44.576 63.7271Z" fill="#57BAD4"/>
<path d="M60.423 63.7271C60.0971 63.7271 59.7845 63.5975 59.554 63.3671C59.3235 63.1366 59.194 62.824 59.194 62.498V49.804C59.194 49.4781 59.3235 49.1655 59.554 48.935C59.7845 48.7045 60.0971 48.575 60.423 48.575C60.749 48.575 61.0616 48.7045 61.2921 48.935C61.5226 49.1655 61.652 49.4781 61.652 49.804V62.498C61.652 62.824 61.5226 63.1366 61.2921 63.3671C61.0616 63.5975 60.749 63.7271 60.423 63.7271V63.7271Z" fill="#57BAD4"/>
<path d="M58.6941 22.558C58.4095 22.5585 58.1337 22.4599 57.914 22.279L52.501 17.822L47.174 22.208C46.9221 22.4152 46.5981 22.5137 46.2735 22.482C45.9489 22.4503 45.6502 22.291 45.443 22.039C45.2359 21.7871 45.1373 21.4632 45.169 21.1385C45.2007 20.8139 45.3601 20.5152 45.612 20.308L51.721 15.278C51.9409 15.0968 52.2171 14.9977 52.502 14.9977C52.787 14.9977 53.0631 15.0968 53.283 15.278L59.4781 20.378C59.6733 20.5391 59.814 20.7565 59.881 21.0005C59.948 21.2446 59.9381 21.5033 59.8526 21.7415C59.767 21.9797 59.61 22.1856 59.403 22.3313C59.196 22.4769 58.9491 22.555 58.696 22.555L58.6941 22.558Z" fill="#3E3A39"/>
<path d="M81.771 83.14H23.231C23.0696 83.14 22.9098 83.1083 22.7607 83.0465C22.6116 82.9847 22.4761 82.8942 22.362 82.7801C22.2479 82.6659 22.1573 82.5305 22.0956 82.3814C22.0338 82.2322 22.002 82.0724 22.002 81.911V40.333C22.0019 40.1516 22.0421 39.9724 22.1196 39.8083C22.197 39.6442 22.3099 39.4993 22.45 39.384L27.889 34.905C28.0138 34.8025 28.1575 34.7255 28.312 34.6785C28.4665 34.6314 28.6288 34.6153 28.7895 34.631C28.9502 34.6467 29.1063 34.6939 29.2488 34.7699C29.3913 34.8459 29.5174 34.9493 29.62 35.074C29.7226 35.1988 29.7995 35.3425 29.8466 35.497C29.8936 35.6515 29.9097 35.8138 29.894 35.9745C29.8783 36.1353 29.8311 36.2913 29.7551 36.4338C29.6791 36.5763 29.5757 36.7025 29.451 36.805L24.459 40.915V80.685H80.544V40.915L75.493 36.756C75.2411 36.5489 75.0817 36.2502 75.05 35.9255C75.0183 35.6009 75.1169 35.277 75.324 35.025C75.5312 34.7731 75.8299 34.6137 76.1545 34.582C76.4792 34.5503 76.803 34.6489 77.055 34.856L82.555 39.384C82.6951 39.4993 82.808 39.6442 82.8855 39.8083C82.963 39.9724 83.0031 40.1516 83.003 40.333V81.912C83.0029 82.0736 82.9709 82.2335 82.9089 82.3827C82.8469 82.5319 82.7561 82.6674 82.6417 82.7815C82.5272 82.8955 82.3914 82.9859 82.242 83.0474C82.0926 83.109 81.9326 83.1404 81.771 83.14Z" fill="#3E3A39"/>
<path d="M81.771 83.141C81.4861 83.1413 81.2099 83.0423 80.99 82.861L52.5011 59.401L24.0111 82.861C23.7591 83.0682 23.4352 83.1667 23.1106 83.135C22.7859 83.1033 22.4872 82.944 22.2801 82.692C22.0729 82.4401 21.9744 82.1161 22.0061 81.7915C22.0378 81.4669 22.1971 81.1682 22.4491 80.961L51.721 56.861C51.9408 56.6794 52.217 56.5801 52.502 56.5801C52.7871 56.5801 53.0633 56.6794 53.283 56.861L82.554 80.961C82.7493 81.1221 82.89 81.3395 82.957 81.5835C83.024 81.8275 83.0141 82.0863 82.9286 82.3245C82.843 82.5627 82.686 82.7686 82.479 82.9142C82.272 83.0598 82.0251 83.138 81.7721 83.138L81.771 83.141Z" fill="#3E3A39"/>
<path d="M44.996 64.734C44.8274 64.7348 44.6604 64.7007 44.5056 64.634C44.3507 64.5672 44.2112 64.4692 44.096 64.346L22.331 41.175C22.1188 40.9357 22.0083 40.6231 22.0229 40.3036C22.0375 39.984 22.1762 39.6828 22.4093 39.4638C22.6425 39.2449 22.9517 39.1254 23.2715 39.1309C23.5914 39.1363 23.8965 39.2663 24.122 39.493L45.889 62.664C46.0533 62.8391 46.1627 63.0584 46.2037 63.295C46.2448 63.5315 46.2157 63.7749 46.1199 63.9951C46.0242 64.2152 45.8661 64.4025 45.6651 64.5339C45.4641 64.6652 45.2291 64.7348 44.989 64.734H44.996Z" fill="#3E3A39"/>
<path d="M60.0041 64.734C59.764 64.7348 59.5289 64.6652 59.328 64.5339C59.127 64.4025 58.9689 64.2152 58.8731 63.9951C58.7774 63.7749 58.7483 63.5315 58.7893 63.295C58.8304 63.0584 58.9397 62.8391 59.104 62.664L80.8711 39.493C81.0966 39.2663 81.4017 39.1363 81.7215 39.1309C82.0413 39.1254 82.3506 39.2449 82.5838 39.4638C82.8169 39.6828 82.9556 39.984 82.9702 40.3036C82.9848 40.6231 82.8743 40.9357 82.6621 41.175L60.895 64.346C60.7809 64.4681 60.6429 64.5654 60.4896 64.6322C60.3364 64.6989 60.1712 64.7336 60.0041 64.734V64.734Z" fill="#3E3A39"/>
<path d="M76.257 47.414C76.0956 47.4142 75.9357 47.3825 75.7866 47.3208C75.6374 47.259 75.5018 47.1685 75.3877 47.0544C75.2735 46.9402 75.1831 46.8047 75.1213 46.6555C75.0596 46.5063 75.0279 46.3465 75.028 46.185V23.073H29.973V46.1861C29.973 46.512 29.8435 46.8246 29.613 47.0551C29.3826 47.2856 29.07 47.415 28.744 47.415C28.4181 47.415 28.1055 47.2856 27.875 47.0551C27.6445 46.8246 27.515 46.512 27.515 46.1861V21.847C27.515 21.6856 27.5468 21.5258 27.6086 21.3767C27.6703 21.2276 27.7609 21.0921 27.875 20.978C27.9891 20.8639 28.1246 20.7734 28.2737 20.7116C28.4228 20.6498 28.5826 20.618 28.744 20.618H76.257C76.4184 20.618 76.5782 20.6498 76.7274 20.7116C76.8765 20.7734 77.0119 20.8639 77.126 20.978C77.2402 21.0921 77.3307 21.2276 77.3925 21.3767C77.4542 21.5258 77.486 21.6856 77.486 21.847V46.188C77.4855 46.5135 77.3558 46.8255 77.1253 47.0554C76.8949 47.2853 76.5825 47.4143 76.257 47.414V47.414Z" fill="#3E3A39"/>
</svg>
