<svg xmlns="http://www.w3.org/2000/svg" width="109.853" height="22.583" viewBox="0 0 109.853 22.583">
    <defs>
        <clipPath id="dpr4w2dlva">
            <path data-name="사각형 1621" style="fill:none" d="M0 0h109.853v22.583H0z"/>
        </clipPath>
    </defs>
    <g data-name="그룹 4325">
        <g data-name="그룹 4324" style="clip-path:url(#dpr4w2dlva)">
            <path data-name="패스 998" d="M11 35.947h5.1l.014-9.6a6.726 6.726 0 0 0-7-6.682H1.667v3.845a.686.686 0 0 0 .686.686h6.792a1.841 1.841 0 0 1 1.841 1.841v.178h-6.9A4.092 4.092 0 0 0 0 30.315v1.921a3.786 3.786 0 0 0 4.073 3.726h3.085A6.418 6.418 0 0 0 11 34.527zm-5.882-5.592a.969.969 0 0 1 .969-.969H10.8a.187.187 0 0 1 .187.187v2.222a.187.187 0 0 1-.187.187H6.083a.965.965 0 0 1-.966-.966z" transform="translate(0 -13.382)" style="fill:#0064b2"/>
            <path data-name="패스 999" d="M296.958 5.417h6.742v-4.29a.551.551 0 0 0-.551-.551h-17.643a.551.551 0 0 0-.551.551v4.29h6.745v17.555h5.256z" transform="translate(-193.851 -.392)" style="fill:#0064b2"/>
            <path data-name="패스 1000" d="M209.76.624h-4.567a.551.551 0 0 0-.551.551V23h5.118z" transform="translate(-139.215 -.425)" style="fill:#0064b2"/>
            <path data-name="패스 1001" d="M100.414 16.174h3.829v-4.489h-3.829V7.921h-4.567a.551.551 0 0 0-.551.551v3.213h-2.142v4.489H95.3v11.8h5.118z" transform="translate(-63.372 -5.389)" style="fill:#0064b2"/>
            <path data-name="패스 1002" d="M236.137 29.907v.115a.934.934 0 0 1-.934.934h-3.715a1.852 1.852 0 0 1-1.852-1.851v-.4h11.15v-3.247a6.771 6.771 0 0 0-6.758-6.783h-2.283a6.839 6.839 0 0 0-6.758 6.863v3.171a6.6 6.6 0 0 0 6.758 6.576h2.283a6.758 6.758 0 0 0 6.6-5.378zm-4.649-6.757h2.8a1.852 1.852 0 0 1 1.849 1.85v.536h-6.5V25a1.852 1.852 0 0 1 1.852-1.852" transform="translate(-153.056 -12.704)" style="fill:#0064b2"/>
            <path data-name="패스 1003" d="M163.469 29.978a.969.969 0 0 1-.969.969h-3.688a1.849 1.849 0 0 1-1.845-1.852v-4.1a1.852 1.852 0 0 1 1.852-1.852h2.8a1.849 1.849 0 0 1 1.845 1.852.189.189 0 0 0 .189.189h4.448a6.766 6.766 0 0 0-6.746-6.517h-2.283a6.772 6.772 0 0 0-6.759 6.785v3.044a6.772 6.772 0 0 0 6.759 6.785h2.283a6.765 6.765 0 0 0 6.686-5.817h-4.357a.22.22 0 0 0-.22.22z" transform="translate(-103.619 -12.696)" style="fill:#0064b2"/>
            <path data-name="패스 1004" d="M66.2 19.628h-.927c-.131-.008-.263 0-.4 0h-1.662a3.833 3.833 0 0 0-2.832 1.436v-1.42h-4.568a.551.551 0 0 0-.551.551v15.739h5.119V24.445a.28.28 0 0 1 .28-.28h4.857a.686.686 0 0 0 .686-.686z" transform="translate(-37.593 -13.351)" style="fill:#0064b2"/>
            <path data-name="사각형 1620" transform="translate(42.046 6.296)" style="fill:#0064b2" d="M0 0h5.118v16.284H0z"/>
            <path data-name="패스 1005" d="M136.628 0h-4.3a.821.821 0 0 0-.821.821v4.3h5.118z" transform="translate(-89.465)" style="fill:#cdce00"/>
        </g>
    </g>
</svg>
