<svg xmlns="http://www.w3.org/2000/svg" width="118" height="20.1" viewBox="0 0 118 20.1">
    <path data-name="패스 810" d="M10.871 4a4.063 4.063 0 0 1 1.5.286 4.285 4.285 0 0 1 .687.345 4.722 4.722 0 0 1 1.93 2.445 5.2 5.2 0 0 1 .033 3.343 4.948 4.948 0 0 1-.555 1.154 4.731 4.731 0 0 1 .815 1.013 4.983 4.983 0 0 1 .686 2.064 5.28 5.28 0 0 1 0 1.11 5.082 5.082 0 0 1-.24 1.1 4.967 4.967 0 0 1-.446.965 4.511 4.511 0 0 1-2.18 1.885 4.1 4.1 0 0 1-1.514.29H6v-1.586a1.526 1.526 0 0 1 1.46-1.586h4.106a1.4 1.4 0 0 0 .808-.258 1.7 1.7 0 0 0 0-2.731 1.4 1.4 0 0 0-.808-.258h-.527A1.522 1.522 0 0 1 9.584 12a1.6 1.6 0 0 1 .794-1.408 1.359 1.359 0 0 1 .6-.187 1.4 1.4 0 0 0 .508-.135 1.634 1.634 0 0 0 .889-1.484 1.562 1.562 0 0 0-1.495-1.623H9.133V4zM7 4v3.163H5.012a1.662 1.662 0 0 0-1.7 1.623V20H1.656A1.62 1.62 0 0 1 0 18.42V8.785a4.6 4.6 0 0 1 .333-1.71A4.887 4.887 0 0 1 2.53 4.63 5.214 5.214 0 0 1 5.022 4H7zm.5-4A1.5 1.5 0 1 1 6 1.5 1.5 1.5 0 0 1 7.5 0z" style="fill-rule:evenodd;fill:#9f9f9f"/>
    <path data-name="패스 811" d="M27.263 19.759V9.12h3.694V7H21v2.12h3.66v10.64h2.6zM33.65 20a4.681 4.681 0 0 0 2.974-1.276h.052l.194 1.035h2.111V14.12c0-2.793-1.284-4.259-3.782-4.259a7.979 7.979 0 0 0-4.117 1.276l.932 1.672a5.645 5.645 0 0 1 2.71-.913 1.518 1.518 0 0 1 1.67 1.672c-3.957.414-5.664 1.5-5.664 3.569A2.77 2.77 0 0 0 33.65 20zm.845-1.983c-.757 0-1.3-.327-1.3-1.086 0-.862.81-1.5 3.2-1.81v1.948a2.632 2.632 0 0 1-1.9.948zM43.734 20a3.575 3.575 0 0 0 1.337-.224l-.316-1.88a1.469 1.469 0 0 1-.352.035c-.246 0-.528-.19-.528-.759V6h-2.568v11.052c0 1.793.633 2.948 2.427 2.948zm7.075 0a6.3 6.3 0 0 0 3.448-1.069l-.88-1.552a4.117 4.117 0 0 1-2.216.673 2.571 2.571 0 0 1-2.727-2.414H54.5a4.64 4.64 0 0 0 .123-1.155c0-2.673-1.408-4.62-4.117-4.62a4.765 4.765 0 0 0-4.592 5.085A4.724 4.724 0 0 0 50.809 20zm1.6-6.034H48.4a2.2 2.2 0 0 1 2.146-2.138c1.266 0 1.864.827 1.864 2.138zm6.6 5.793V13.12a2.849 2.849 0 0 1 2.058-1.087c.968 0 1.39.535 1.39 2.018v5.707h2.586V13.74c0-2.43-.915-3.879-3.044-3.879a4.575 4.575 0 0 0-3.2 1.517h-.07l-.177-1.278h-2.11v9.656h2.568zm12 .241a6.5 6.5 0 0 0 2.076-.362l-.422-1.845A2.916 2.916 0 0 1 71.7 18c-.88 0-1.337-.517-1.337-1.62V12.1h2.428v-2h-2.432V7.517h-2.164L67.9 10.1l-1.513.121V12.1h1.39v4.275C67.773 18.552 68.67 20 71.01 20zm9-.241c2.868 0 5.05-1.19 5.05-3.759a2.916 2.916 0 0 0-2.446-3.017V12.9a2.894 2.894 0 0 0 1.777-2.76C84.394 7.76 82.353 7 79.679 7h-4.31v12.759zm-.528-7.57h-1.508V8.95h1.548c1.565 0 2.34.448 2.34 1.568 0 1.017-.722 1.673-2.376 1.673zm.3 5.6h-1.808v-3.703h1.812c1.794 0 2.744.517 2.744 1.759 0 1.327-.968 1.948-2.744 1.948zM89.252 20a4.681 4.681 0 0 0 2.973-1.276h.053l.193 1.035h2.111V14.12c0-2.793-1.284-4.259-3.782-4.259a7.982 7.982 0 0 0-4.117 1.276l.933 1.672a5.639 5.639 0 0 1 2.709-.913A1.518 1.518 0 0 1 92 13.568c-3.958.414-5.665 1.5-5.665 3.569A2.771 2.771 0 0 0 89.251 20zm.844-1.983c-.756 0-1.3-.327-1.3-1.086 0-.862.81-1.5 3.2-1.81v1.948a2.631 2.631 0 0 1-1.896.948zm9.38 1.742V13.12a2.848 2.848 0 0 1 2.058-1.087c.967 0 1.39.535 1.39 2.018v5.707h2.586V13.74c0-2.43-.915-3.879-3.044-3.879a4.579 4.579 0 0 0-3.2 1.517h-.07l-.178-1.278h-2.111v9.656h2.569zm10.91 0v-2.414l1.424-1.586 2.393 4H117l-3.73-5.707 3.413-3.949h-2.814l-3.413 4.173h-.07V6h-2.516v13.759h2.516z" style="stroke:#9f9f9f;stroke-width:.2px;fill:#9f9f9f"/>
</svg>
