<svg xmlns="http://www.w3.org/2000/svg" width="196" height="36" viewBox="0 0 196 36">
    <defs>
        <style>
            .cls-3{fill:#58bad4}.cls-4{fill:#202020}
        </style>
    </defs>
    <g id="logo01" transform="translate(-773.675 -254.562)">
        <g id="그룹_4039" data-name="그룹 4039" transform="translate(773.675 256.075)">
            <path id="패스_852" data-name="패스 852" d="M806.9 288.768a7.661 7.661 0 0 0-.4-1.691 7.609 7.609 0 0 0-2.187-3.178 7.587 7.587 0 0 0-2.421-10.986 7.658 7.658 0 0 0-1.181-.547 7.564 7.564 0 0 0-2.584-.452h-2.989v5h3a2.568 2.568 0 0 1 .327 5.116c-.056 0-.11.009-.161.015a2.467 2.467 0 0 0-1.03.3 2.5 2.5 0 0 0 1.137 4.731h.907a2.569 2.569 0 1 1 0 5.138h-7.063a2.51 2.51 0 0 0-2.51 2.511v2.509h9.609a7.58 7.58 0 0 0 7.538-6.711 7.625 7.625 0 0 0 0-1.756z" transform="translate(-781.981 -264.261)" style="fill:#332878"/>
            <path id="패스_853" data-name="패스 853" class="cls-3" d="M781.264 271.915a7.583 7.583 0 0 0-7.589 7.574v15.244a2.5 2.5 0 0 0 2.5 2.5h2.5v-17.744a2.568 2.568 0 0 1 2.569-2.569h3v-5z" transform="translate(-773.675 -264.261)"/>
            <path id="패스_854" data-name="패스 854" class="cls-3" d="M798 258.625a2.55 2.55 0 1 1-2.551-2.55 2.55 2.55 0 0 1 2.551 2.55z" transform="translate(-783.612 -256.075)"/>
        </g>
        <g id="그룹_4040" data-name="그룹 4040" transform="translate(806.371 264.723)">
            <path id="패스_855" data-name="패스 855" class="cls-4" d="M847.569 281.252h-6.231v-3.685h16.956v3.685H852v18.484h-4.434z" transform="translate(-841.338 -275.83)"/>
            <path id="패스_856" data-name="패스 856" class="cls-4" d="M875.5 300.5c0-3.595 2.906-5.482 9.646-6.2-.059-1.648-.779-2.906-2.846-2.906a9.482 9.482 0 0 0-4.614 1.588l-1.588-2.906a13.4 13.4 0 0 1 7.011-2.217c4.254 0 6.441 2.546 6.441 7.4v9.8h-3.6l-.33-1.8h-.09a7.889 7.889 0 0 1-5.063 2.217 4.765 4.765 0 0 1-4.967-4.976zm9.646-.12V297c-4.074.539-5.452 1.648-5.452 3.145 0 1.318.929 1.887 2.217 1.887a4.446 4.446 0 0 0 3.236-1.651z" transform="translate(-858.993 -281.148)"/>
            <path id="패스_857" data-name="패스 857" class="cls-4" d="M912.637 293.175v-19.2h4.374v19.412c0 .989.479 1.318.9 1.318a2.482 2.482 0 0 0 .6-.06l.539 3.266a6 6 0 0 1-2.277.389c-3.057 0-4.136-2.009-4.136-5.125z" transform="translate(-878.184 -273.972)"/>
            <path id="패스_858" data-name="패스 858" class="cls-4" d="M928.756 296.7c0-5.453 3.8-8.838 7.82-8.838 4.613 0 7.01 3.385 7.01 8.029a8.178 8.178 0 0 1-.21 2.007h-10.335a4.407 4.407 0 0 0 4.643 4.194 6.917 6.917 0 0 0 3.775-1.168l1.5 2.7a10.581 10.581 0 0 1-5.872 1.858c-4.676-.008-8.331-3.273-8.331-8.782zm11.055-1.708c0-2.277-1.018-3.715-3.175-3.715-1.768 0-3.326 1.258-3.655 3.715z" transform="translate(-886.514 -281.148)"/>
            <path id="패스_859" data-name="패스 859" class="cls-4" d="M965.708 288.278h3.592l.3 2.217h.12a7.735 7.735 0 0 1 5.453-2.636c3.625 0 5.183 2.516 5.183 6.74v10.455h-4.4v-9.916c0-2.577-.719-3.505-2.367-3.505-1.378 0-2.247.659-3.505 1.887v11.534h-4.374z" transform="translate(-905.61 -281.148)"/>
            <path id="패스_860" data-name="패스 860" class="cls-4" d="M1002.98 294.825V287.4h-2.366v-3.265l2.576-.21.509-4.494h3.685v4.494h4.133v3.475h-4.133v7.43c0 1.917.778 2.816 2.276 2.816a4.9 4.9 0 0 0 1.648-.36l.719 3.206a10.841 10.841 0 0 1-3.535.629c-3.983-.004-5.512-2.521-5.512-6.296z" transform="translate(-923.648 -276.791)"/>
            <path id="패스_861" data-name="패스 861" class="cls-4" d="M1029.754 277.567h7.34c4.553 0 8.029 1.318 8.029 5.453a5.029 5.029 0 0 1-3.025 4.793v.15a5.042 5.042 0 0 1 4.164 5.243c0 4.464-3.715 6.531-8.6 6.531h-7.909zm7.01 9.018c2.816 0 4.045-1.139 4.045-2.906 0-1.947-1.318-2.726-3.985-2.726h-2.636v5.632zm.51 9.736c3.026 0 4.673-1.079 4.673-3.385 0-2.157-1.618-3.056-4.673-3.056h-3.086v6.441z" transform="translate(-938.707 -275.83)"/>
            <path id="패스_862" data-name="패스 862" class="cls-4" d="M1068.255 300.5c0-3.595 2.906-5.482 9.647-6.2-.06-1.648-.779-2.906-2.846-2.906a9.481 9.481 0 0 0-4.614 1.588l-1.588-2.906a13.4 13.4 0 0 1 7.011-2.217c4.254 0 6.441 2.546 6.441 7.4v9.8h-3.6l-.33-1.8h-.09a7.889 7.889 0 0 1-5.063 2.217 4.766 4.766 0 0 1-4.968-4.976zm9.647-.12V297c-4.074.539-5.452 1.648-5.452 3.145 0 1.318.929 1.887 2.216 1.887a4.447 4.447 0 0 0 3.234-1.651z" transform="translate(-958.604 -281.148)"/>
            <path id="패스_863" data-name="패스 863" class="cls-4" d="M1105.392 288.278h3.6l.3 2.217h.12a7.734 7.734 0 0 1 5.452-2.636c3.625 0 5.183 2.516 5.183 6.74v10.455h-4.4v-9.916c0-2.577-.719-3.505-2.366-3.505-1.379 0-2.247.659-3.505 1.887v11.534h-4.374z" transform="translate(-977.795 -281.148)"/>
            <path id="패스_864" data-name="패스 864" class="cls-4" d="M1143.894 273.972h4.284v14.38h.119l5.812-7.25h4.793l-5.812 6.86 6.351 9.916h-4.764l-4.074-6.951-2.427 2.756v4.194h-4.284z" transform="translate(-997.692 -273.972)"/>
        </g>
    </g>
</svg>
