<svg xmlns="http://www.w3.org/2000/svg" width="148" height="36" viewBox="0 0 148 36">
    <defs>
        <style>
            .cls-3{fill:#58bad4}
        </style>
    </defs>
    <g id="logo04" transform="translate(-773.675 -254.562)">
        <path id="사각형_1517" data-name="사각형 1517" transform="translate(773.675 254.562)" style="fill:none" d="M0 0h148v36H0z"/>
        <g id="그룹_4039" data-name="그룹 4039" transform="translate(773.675 256.075)">
            <path id="패스_852" data-name="패스 852" d="M806.9 288.768a7.661 7.661 0 0 0-.4-1.691 7.609 7.609 0 0 0-2.187-3.178 7.587 7.587 0 0 0-2.421-10.986 7.658 7.658 0 0 0-1.181-.547 7.564 7.564 0 0 0-2.584-.452h-2.989v5h3a2.568 2.568 0 0 1 .327 5.116c-.056 0-.11.009-.161.015a2.467 2.467 0 0 0-1.03.3 2.5 2.5 0 0 0 1.137 4.731h.907a2.569 2.569 0 1 1 0 5.138h-7.063a2.51 2.51 0 0 0-2.51 2.511v2.509h9.609a7.58 7.58 0 0 0 7.538-6.711 7.625 7.625 0 0 0 0-1.756z" transform="translate(-781.981 -264.261)" style="fill:#332878"/>
            <path id="패스_853" data-name="패스 853" class="cls-3" d="M781.264 271.915a7.583 7.583 0 0 0-7.589 7.574v15.244a2.5 2.5 0 0 0 2.5 2.5h2.5v-17.744a2.568 2.568 0 0 1 2.569-2.569h3v-5z" transform="translate(-773.675 -264.261)"/>
            <path id="패스_854" data-name="패스 854" class="cls-3" d="M798 258.625a2.55 2.55 0 1 1-2.551-2.55 2.55 2.55 0 0 1 2.551 2.55z" transform="translate(-783.612 -256.075)"/>
        </g>
        <path id="Combined_Shape" data-name="Combined Shape" d="M77.684 21.759a8.484 8.484 0 0 1-2.381-6.23 8.842 8.842 0 0 1 2.374-6.238A7.518 7.518 0 0 1 83.023 7a6.505 6.505 0 0 1 5.17 2.193 8.485 8.485 0 0 1 1.753 5.555 7.8 7.8 0 0 1-.207 1.938H79.533a4.62 4.62 0 0 0 1.505 3.02 4.655 4.655 0 0 0 3.08 1.027 6.923 6.923 0 0 0 3.727-1.128l1.48 2.6A10.621 10.621 0 0 1 83.526 24a8.235 8.235 0 0 1-5.842-2.241zM80.746 11.2a4.413 4.413 0 0 0-1.273 2.682h6.744a3.949 3.949 0 0 0-.81-2.66 2.938 2.938 0 0 0-2.326-.925 3.359 3.359 0 0 0-2.335.903zm-12.765 7.746V0h4.282v19.153c0 .976.469 1.3.879 1.3a2.4 2.4 0 0 0 .586-.059l.528 3.222a5.843 5.843 0 0 1-2.227.384c-2.991 0-4.048-1.981-4.048-5.054zm-16.734-3.417A8.21 8.21 0 0 1 59.775 7a7.425 7.425 0 0 1 4.86 1.793l-2.087 2.746a3.872 3.872 0 0 0-2.564-1.069c-2.535 0-4.264 1.994-4.264 5.059 0 3.036 1.729 5 4.144 5a5.268 5.268 0 0 0 3.25-1.3l1.729 2.8A8.44 8.44 0 0 1 59.388 24c-4.622 0-8.141-3.123-8.141-8.471zm-18.531 2.38v-7.194H30.33V7.554l2.6-.2L33.441 3h3.713v4.351h4.167v3.364h-4.167v7.194c0 1.856.785 2.726 2.295 2.726a5.1 5.1 0 0 0 1.661-.348l.724 3.1a11.329 11.329 0 0 1-3.562.613c-4.017 0-5.556-2.437-5.556-6.091zM17.78 24V7.415h3.5l.291 2.931h.117C22.878 8.185 24.627 7 26.315 7a4.539 4.539 0 0 1 1.923.356l-.758 3.761a5.07 5.07 0 0 0-1.69-.266c-1.282 0-2.826.859-3.758 3.257V24zM0 19.2a4.43 4.43 0 0 1 2.392-4.033c1.615-.963 4.121-1.6 7.661-1.951a2.621 2.621 0 0 0-2.966-2.8 10.465 10.465 0 0 0-4.807 1.528L.625 9.14A14.646 14.646 0 0 1 7.93 7a6.577 6.577 0 0 1 5.019 1.814 7.557 7.557 0 0 1 1.693 5.327V23.6H10.9l-.344-1.735h-.094A8.475 8.475 0 0 1 5.183 24C2.131 24 0 22.027 0 19.2zm4.371-.346c0 1.174.821 1.822 2.31 1.822a4.782 4.782 0 0 0 3.372-1.59v-3.268c-5.092.624-5.682 2.032-5.682 3.036zM103.416 23V5.491h-6.15V2H114v3.491h-6.209V23zm-54.708 0h-4.362V7.1h4.363V23zM43.927 2.272A2.363 2.363 0 0 1 46.557 0a2.346 2.346 0 0 1 2.6 2.272 2.131 2.131 0 0 1-.74 1.626 2.817 2.817 0 0 1-1.86.645 2.388 2.388 0 0 1-2.63-2.271z" transform="translate(806.675 264.562)" style="fill:#202020"/>
    </g>
</svg>
