<svg xmlns="http://www.w3.org/2000/svg" width="132" height="132" viewBox="0 0 132 132">
    <defs>
        <style>
            .cls-1{fill:#332878}
        </style>
    </defs>
    <g id="icon80_cir2" transform="translate(27.16 8)">
        <rect id="사각형_770" data-name="사각형 770" class="cls-1" width="132" height="132" rx="66" transform="translate(-27.16 -8)"/>
        <rect id="사각형_1375" data-name="사각형 1375" width="110" height="110" rx="55" transform="translate(-16.16 3)" style="fill:#fff"/>
        <g id="그룹_4033" data-name="그룹 4033" transform="translate(-2750.264 -2746.154)">
            <path id="패스_828" data-name="패스 828" class="cls-1" d="M2789.1 2738.154a66 66 0 1 0 66 66 66 66 0 0 0-66-66zm16.473 24.106a9.917 9.917 0 1 1-9.917 9.917 9.929 9.929 0 0 1 9.921-9.917zm-41.128 30.094a9.917 9.917 0 1 1-9.917 9.917 9.929 9.929 0 0 1 9.921-9.917zm66.987 21.377-25.988 26.677a4.934 4.934 0 0 1-3.52 1.464h-50.095a5.64 5.64 0 0 1-5.639-5.1 78.228 78.228 0 0 1 .016-15.6 8.833 8.833 0 0 1 10.792-7.71l6.238 1.442a4.309 4.309 0 0 0 2.068.006h.03l6.207-1.442a8.835 8.835 0 0 1 10.793 7.71 77.674 77.674 0 0 1-.134 16.822h19.725a1.036 1.036 0 0 0 .743-.292l25.222-25.892h-49.82a1.939 1.939 0 0 1 0-3.878h9.381a78.28 78.28 0 0 1-.1-16.853 8.813 8.813 0 0 1 10.776-7.706l6.207 1.442h.031a4.292 4.292 0 0 0 2.07 0h.032l6.207-1.442a8.824 8.824 0 0 1 10.761 7.71 77.989 77.989 0 0 1-.117 16.848h5.654a3.394 3.394 0 0 1 3.144 2.064 3.429 3.429 0 0 1-.68 3.731z"/>
            <path id="패스_829" data-name="패스 829" class="cls-1" d="M3108.934 3000.291a4.972 4.972 0 0 0-2.053-3.537 4.871 4.871 0 0 0-3.977-.791l-6.2 1.441a8.17 8.17 0 0 1-3.874 0h-.009l-6.206-1.441a4.934 4.934 0 0 0-6.045 4.323 74.422 74.422 0 0 0 .146 16.457h28.062a74.132 74.132 0 0 0 .165-16.453z" transform="translate(-289.35 -208.809)"/>
            <path id="패스_830" data-name="패스 830" class="cls-1" d="M3132.163 2897.786a6.039 6.039 0 1 0-6.038-6.039 6.046 6.046 0 0 0 6.038 6.039z" transform="translate(-326.585 -119.57)"/>
            <path id="패스_831" data-name="패스 831" class="cls-1" d="M2915.3 3056.466a6.039 6.039 0 1 0-6.039-6.039 6.046 6.046 0 0 0 6.039 6.039z" transform="translate(-150.852 -248.155)"/>
            <path id="패스_832" data-name="패스 832" class="cls-1" d="M2892.076 3158.977a4.956 4.956 0 0 0-6.063-4.328l-6.205 1.441a8.09 8.09 0 0 1-1.915.229 8.307 8.307 0 0 1-1.931-.229l-6.237-1.442a4.956 4.956 0 0 0-6.064 4.327 74.388 74.388 0 0 0-.015 14.821 1.775 1.775 0 0 0 1.78 1.6h26.463a73.839 73.839 0 0 0 .193-16.42z" transform="translate(-113.589 -337.401)"/>
        </g>
    </g>
</svg>
