<svg xmlns="http://www.w3.org/2000/svg" width="132" height="132" viewBox="0 0 132 132">
    <defs>
        <style>
            .cls-2{fill:#6bc5db}
        </style>
    </defs>
    <g id="icon80_cir1" transform="translate(31 23)">
        <g id="그룹_4032" data-name="그룹 4032" transform="translate(-31 -23)">
            <circle id="타원_32" data-name="타원 32" cx="57" cy="57" r="57" transform="translate(9 10)" style="fill:#fff"/>
            <path id="패스_821" data-name="패스 821" class="cls-2" d="M4174.071 801.015a5.4 5.4 0 0 0-4.36-.837l-6.626 1.527a8.62 8.62 0 0 1-4.089 0l-6.627-1.527a5.323 5.323 0 0 0-5.007 1.351 1.877 1.877 0 0 1-.127.146 2.01 2.01 0 0 1-.147.138 5.471 5.471 0 0 0-1.358 3.08 79.743 79.743 0 0 0-.387 10.116 1.883 1.883 0 0 1 .012.41q.081 2.687.343 5.361a2.049 2.049 0 0 0 2.012 1.842h26.67a2 2 0 0 0 1.98-1.832 79.789 79.789 0 0 0-.033-15.895 5.456 5.456 0 0 0-2.256-3.88z" transform="translate(-4095.231 -717.326)"/>
            <path id="패스_822" data-name="패스 822" class="cls-2" d="M4062.535 563.44a24.232 24.232 0 0 1 20.505-15.04v-9.614a33.823 33.823 0 0 0-31.824 31.822h9.614a24.191 24.191 0 0 1 1.705-7.168z" transform="translate(-4018.983 -505.628)"/>
            <path id="패스_823" data-name="패스 823" class="cls-2" d="M4060.853 727.245h-9.614a33.875 33.875 0 0 0 13.932 25.424q.058-3.588.422-7.156a9.388 9.388 0 0 1 1.395-4.04 24.122 24.122 0 0 1-5.682-11.148 24.387 24.387 0 0 1-.453-3.08z" transform="translate(-4019.002 -658.343)"/>
            <circle id="타원_31" data-name="타원 31" class="cls-2" cx="6.568" cy="6.568" r="6.568" transform="rotate(-89.4 66.767 6.73)"/>
            <path id="패스_824" data-name="패스 824" class="cls-2" d="M4239.682 538.8v9.615a24.245 24.245 0 0 1 22.177 22.2h9.613a33.821 33.821 0 0 0-31.79-31.82z" transform="translate(-4171.706 -505.639)"/>
            <path id="패스_825" data-name="패스 825" class="cls-2" d="M4328.775 730.632a24.126 24.126 0 0 1-5.866 11.116 9.4 9.4 0 0 1 1.225 3.765c.253 2.474.4 4.963.427 7.453a33.874 33.874 0 0 0 14.351-25.721h-9.612a24.436 24.436 0 0 1-.525 3.387z" transform="translate(-4239.148 -658.343)"/>
            <path id="패스_826" data-name="패스 826" class="cls-2" d="M4159.3 632.415a1.96 1.96 0 0 1 0-3.919h3.74a20.506 20.506 0 0 0-1.311-5.45 20.194 20.194 0 0 0-16.939-12.82v3.76a1.96 1.96 0 0 1-3.919 0v-3.765A20.193 20.193 0 0 0 4124 622.8a20.46 20.46 0 0 0-1.41 5.7h3.741a1.96 1.96 0 0 1 0 3.919h-3.746a20.2 20.2 0 0 0 4.962 11.415 9.374 9.374 0 0 1 7.279-1.284l6.627 1.527h.034a4.706 4.706 0 0 0 2.268 0h.034l6.626-1.527a9.322 9.322 0 0 1 7.511 1.462 20.191 20.191 0 0 0 5.121-11.593zm-16.486 8.511a10.487 10.487 0 1 1 10.488-10.487 10.5 10.5 0 0 1-10.487 10.487z" transform="translate(-4076.815 -563.514)"/>
            <path id="패스_827" data-name="패스 827" class="cls-2" d="M3947.261 363.945a66 66 0 1 0 66 66 66 66 0 0 0-66-66zm42.183 68.9h-4.494a37.782 37.782 0 0 1-18.349 30.433q-.1 2.262-.319 4.513a5.907 5.907 0 0 1-5.881 5.368h-26.67a5.929 5.929 0 0 1-5.912-5.377q-.234-2.376-.329-4.766a37.782 37.782 0 0 1-17.917-30.171h-4.494a1.96 1.96 0 0 1 0-3.919h4.49a37.741 37.741 0 0 1 35.749-35.747v-4.491a1.96 1.96 0 0 1 3.919 0v4.493a37.736 37.736 0 0 1 35.715 35.746h4.491a1.96 1.96 0 0 1 0 3.919z" transform="translate(-3881.261 -363.945)"/>
        </g>
    </g>
</svg>
