<svg xmlns="http://www.w3.org/2000/svg" width="132" height="132" viewBox="0 0 132 132">
    <defs>
        <style>
            .cls-1{fill:#6bc5db}
        </style>
    </defs>
    <g id="icon80_cir3" transform="translate(53.818 24.633)">
        <rect id="사각형_1374" data-name="사각형 1374" class="cls-1" width="132" height="132" rx="66" transform="translate(-53.818 -24.633)"/>
        <rect id="사각형_771" data-name="사각형 771" width="106" height="106" rx="53" transform="translate(-40.818 -11.633)" style="fill:#fff"/>
        <g id="그룹_4034" data-name="그룹 4034" transform="translate(-1421.997 -304.349)">
            <path id="패스_833" data-name="패스 833" class="cls-1" d="M1561.549 698.907a4.229 4.229 0 0 1-.448-2.661l-6.646-.291a17.034 17.034 0 0 0-16.834 14.834l-.463 4.035-.331 4.042a.515.515 0 0 0 .134.426.693.693 0 0 0 .464.229h25.524l2.034-14.211-3.432-6.4z" transform="translate(-134.961 -335.031)"/>
            <path id="패스_834" data-name="패스 834" class="cls-1" d="M1617.342 498.046a3.884 3.884 0 0 1 1.482 1.99l.322.934.344.875.364.85.426.821.449.809.513.754.52.734.565.684.611.672.625.625.671.579.7.575.679.472.738.472.751.391.779.389.777.3.807.3.784.2.8.179.836.119.836.089.8.024.821-.024.835-.089.837-.119.812-.18.817-.2.776-.287.809-.338.792-.371.715-.372.691-.461.753-.546.694-.531.613-.555.64-.64.611-.672.582-.7.536-.715.468-.732.461-.831.438-.845.4-.851.334-.85.322-.934a3.8 3.8 0 0 1 1.45-1.991 3.171 3.171 0 0 0 1.293-3.855l-5.182-2.606-4.878-2.406-.031-.016-4.851-2.509-.027-.014-4.784-2.576-.01-.006-.011-.005a.147.147 0 0 0-.169.024l-.02.018-.018.018-1.773 1.606-.067.058-1.874 1.539q-.043.035-.087.067l-1.94 1.405-.087.059-2.041 1.3-.077.046-4.159 2.374-2.935 1.851a3.314 3.314 0 0 0 1.342 3.625z" transform="translate(-200.16 -160.259)"/>
            <path id="패스_835" data-name="패스 835" class="cls-1" d="m1621.078 442.425 4.151-2.369 1.958-1.252 1.853-1.342 1.8-1.476 1.74-1.576.026-.022a3.753 3.753 0 0 1 4.332-.547l.031.015 4.771 2.569 4.822 2.494 4.869 2.4.012.006 2.647 1.331-.1-.58-.193-.936-.191-.95-.24-.871-.284-.883-.318-.922-.143-.372-.156-.363-.2-.364-.025-.048-.222-.444-.2-.364-.219-.355-.522-.768-.562-.75-.568-.718-1.318-1.38-.639-.609-.684-.591-.7-.571-.7-.537-.685-.5-.624-.416-.636-.368-.31-.165-.294-.149-.588-.235-.3-.109-.268-.083-.259-.061-.642-.117-.276-.035-.256-.011h-.286l-.253.021-.328.055h-.022l-.387.06-.3.064-.353.095-.383.118-.865.288-1.387.5a1.82 1.82 0 0 1-.143.045l-.5.134-.051.013-.459.108-.095.02-.511.092a1.665 1.665 0 0 1-.158.021l-.461.042h-.069l-.476.025h-.126l-1.9-.032-.83.057-.388.052-.388.078-.372.1-.39.14-.4.166-.434.2-.4.2-.418.247-.4.251-.8.588-.338.3-.828.764-.35.35-.35.38-.683.807-.262.341-.535.833-.245.428-.029.049-.226.367-.175.35-.358.836-.129.36-.368 1.29-.075.346-.053.372-.191 1.855-.069.9v.028l-.084.917.309-.194z" transform="translate(-204.135 -113.248)"/>
            <path id="패스_836" data-name="패스 836" class="cls-1" d="M1434.178 289.716a61 61 0 1 0 61 61 61 61 0 0 0-61-61zm-21.61 42.785.265-2.443v-.015l.114-.97.082-.9.07-.912v-.045l.2-1.923c0-.022.005-.044.008-.067l.067-.469q.009-.063.022-.125l.1-.468a2.3 2.3 0 0 1 .03-.119l.4-1.4c.011-.038.023-.076.036-.113l.167-.469a.907.907 0 0 1 .041-.1l.4-.938.044-.1.234-.468c.024-.047.049-.094.077-.139l.252-.411.254-.444c.016-.027.031-.053.049-.08l.6-.937q.041-.064.088-.124l.334-.435c.017-.023.035-.045.053-.066l.736-.87.052-.058.4-.435.051-.053.4-.4.053-.051.87-.8.032-.029.41-.361q.056-.05.116-.094l.459-.341.01-.008.461-.338c.036-.026.072-.051.109-.074l.475-.3.039-.024.486-.288c.033-.019.065-.038.1-.055l.484-.247.075-.036.5-.228.057-.024.469-.195.082-.032.5-.18c.048-.017.1-.032.145-.045l.5-.134a1.4 1.4 0 0 1 .112-.026l.5-.1q.058-.012.116-.019l.5-.067a1.39 1.39 0 0 1 .111-.011l.978-.068h.152l1.911.032.378-.02.347-.031.384-.069.387-.091.4-.108 1.334-.477.037-.013.9-.3.04-.013.435-.134.063-.018.434-.117c.033-.009.066-.017.1-.024l.4-.084.1-.017.814-.13q.074-.012.148-.018l.4-.033c.05 0 .1-.006.15-.006H1436.735l.371.016c.051 0 .1.006.151.013l.4.051.1.015.736.134.09.019.366.086q.062.015.123.034l.37.115.083.028.368.134.054.021.683.273c.051.02.1.043.151.068l.383.194.029.015.355.188.06.033.715.414c.033.019.066.039.1.061l.7.468.061.042.736.535.043.032.736.569.04.032.736.6.037.031.736.636.066.06.7.669.061.061 1.4 1.471q.058.061.111.127l.635.8.029.038.6.8.049.069.568.836.044.068.268.435c.019.03.036.061.053.092l.234.435.025.048.222.444.221.411c.025.047.048.1.069.144l.2.468.026.065.167.435c.007.019.015.039.021.059l.335.97.012.036.3.937a.977.977 0 0 1 .021.072l.268.97c.012.042.022.084.03.127l.2 1 .2.96c0 .023.009.046.013.069l.167 1c0 .022.007.044.01.065l.358 2.738a6.781 6.781 0 0 1-2.333 8.769l-.007.006a.486.486 0 0 0-.056.127c0 .012-.008.023-.012.034s0 .016-.007.025l-.334.97-.027.072-.368.937c-.013.034-.028.067-.043.1l-.435.936a1.56 1.56 0 0 1-.035.071l-.468.9-.024.046-.5.9-.058.1-.535.836c-.025.038-.05.075-.077.111l-.6.8-.053.068-.636.77q-.027.033-.055.064l-.669.736c-.02.022-.04.043-.061.063l-.7.7a1.903 1.903 0 0 1-.065.062l-.7.636-.115.1-.772.59-.037.028-.8.58-.059.041-.8.535a1.791 1.791 0 0 1-.169.1l-.836.435-.069.034-.861.4-.069.03-.878.367-.07.027-.9.335a1.881 1.881 0 0 1-.19.059l-.936.234-.047.011-.9.2c-.046.01-.091.019-.138.025l-.937.134-.063.008-.937.1a2.226 2.226 0 0 1-.141.01l-.945.027h-.107l-.928-.028c-.047 0-.093 0-.14-.009l-.937-.1-.063-.008-.937-.134a2.095 2.095 0 0 1-.138-.025l-.9-.2-.062-.015-.9-.234a1.8 1.8 0 0 1-.174-.054l-.9-.335-.023-.008-.869-.335a1.87 1.87 0 0 1-.159-.07l-.87-.435-.026-.013-.836-.435q-.073-.038-.141-.082l-.836-.535-.058-.039-.77-.535q-.062-.043-.12-.091l-.769-.636-.03-.025-.736-.636q-.05-.043-.1-.09l-.7-.7q-.031-.031-.06-.063l-.669-.736a1.74 1.74 0 0 1-.056-.065l-.636-.769a2.027 2.027 0 0 1-.082-.107l-.568-.8-.02-.028-.569-.837a1.544 1.544 0 0 1-.086-.14l-.5-.9-.024-.045-.469-.9c-.021-.04-.04-.08-.057-.121l-.4-.937-.021-.051-.368-.937-.027-.072-.334-.97c0-.008 0-.017-.007-.025s-.009-.023-.012-.034a.274.274 0 0 0-.067-.111 6.943 6.943 0 0 1-2.575-8.289zm56.419 54.229a4.255 4.255 0 0 1-3.094 1.392h-63.43a4.292 4.292 0 0 1-3.128-1.392 4.147 4.147 0 0 1-1.092-3.171v-.011l.334-4.081a.2.2 0 0 1 .006-.059l.468-4.081v-.024a20.628 20.628 0 0 1 20.469-18.012h.079l10.666.467h7.815l10.633-.467h.079a20.63 20.63 0 0 1 20.469 18.012v.023l.468 4.081v.044l.368 4.081v.024a4.16 4.16 0 0 1-1.109 3.174z"/>
            <path id="패스_837" data-name="패스 837" class="cls-1" d="m1772.538 714.831-.464-4.043a17.035 17.035 0 0 0-16.833-14.833l-6.637.291a4.158 4.158 0 0 1-.427 2.666l-3.46 6.4 2.063 14.208h25.52a.635.635 0 0 0 .43-.229.532.532 0 0 0 .168-.42z" transform="translate(-306.411 -335.031)"/>
            <path id="패스_838" data-name="패스 838" class="cls-1" d="M1700.636 707.4c0-.035-.008-.069-.01-.1s0-.051 0-.077v-.181c0-.027.006-.061.01-.092l.013-.086s.011-.057.018-.085c.005-.028.014-.061.023-.09l.024-.078c.008-.026.021-.063.034-.094l.03-.071c.014-.032.029-.064.045-.095l.016-.034 3.745-6.921a.547.547 0 0 0-.021-.521.511.511 0 0 0-.437-.249h-7.9a.512.512 0 0 0-.437.248.557.557 0 0 0 .012.522l3.713 6.925a1.816 1.816 0 0 1 .2 1.115l-2.045 14.286h5.04l-2.074-14.282a.108.108 0 0 0 .001-.04z" transform="translate(-266.017 -337.232)"/>
        </g>
    </g>
</svg>
